<?xml version="1.0" standalone="no"?>
<!DOCTYPE svg PUBLIC "-//W3C//DTD SVG 20010904//EN"
"http://www.w3.org/TR/2001/REC-SVG-20010904/DTD/svg10.dtd">
<svg version="1.0" xmlns="http://www.w3.org/2000/svg"
width="300.000000pt" height="94.000000pt" viewBox="0 0 300.000000 94.000000"
preserveAspectRatio="xMidYMid meet">

<g transform="translate(0.000000,94.000000) scale(0.100000,-0.100000)" fill="#fbfafc" stroke="none">
<path d="M206 914 c-51 -19 -71 -23 -76 -14 -20 32 -102 -56 -120 -129 -24
-99 0 -103 140 -25 55 31 103 54 107 51 11 -12 -73 -171 -152 -287 -42 -63
-81 -126 -86 -138 -11 -28 4 -94 26 -112 27 -22 52 1 130 118 43 64 106 153
140 197 63 79 155 176 155 162 0 -18 -48 -100 -132 -229 -98 -150 -111 -188
-85 -251 9 -20 20 -37 24 -37 13 0 77 69 185 200 53 63 108 126 124 140 l28
25 -23 -35 c-56 -87 -94 -181 -94 -233 0 -81 30 -127 84 -127 32 0 117 48 166
93 43 39 47 41 57 23 28 -47 43 -58 88 -63 51 -6 125 23 185 72 l32 27 15 -35
c8 -20 23 -40 34 -46 22 -12 45 2 120 73 l42 40 0 -56 c0 -59 16 -88 47 -88
29 0 99 48 137 94 45 55 76 64 50 14 -9 -17 -29 -49 -45 -71 -60 -83 -89 -216
-53 -251 8 -9 20 -16 25 -16 22 0 60 56 96 141 l38 90 35 -6 c118 -18 133 -17
185 14 28 17 63 41 79 53 24 19 30 20 34 8 3 -8 20 -30 38 -47 50 -51 93 -44
168 26 24 22 40 31 43 24 23 -64 83 -80 139 -38 l32 25 10 -29 c6 -17 22 -33
41 -41 39 -16 78 -1 134 49 l38 34 32 -30 c43 -41 69 -53 112 -53 51 0 124 41
200 111 51 48 65 67 65 90 0 45 -25 47 -68 7 -70 -65 -75 -66 -51 -12 17 38
20 59 15 108 -12 127 -16 136 -51 136 -39 0 -55 -11 -75 -49 -33 -67 -240
-265 -257 -247 -10 9 19 63 66 126 30 40 41 64 41 90 0 38 -14 60 -38 60 -8 0
-72 -56 -142 -125 -70 -69 -130 -125 -134 -125 -13 0 13 36 59 80 26 25 54 58
62 74 15 28 14 31 -7 48 -59 48 -149 -10 -213 -138 -39 -76 -116 -128 -131
-88 -14 36 -2 56 72 131 92 93 136 164 158 257 21 81 12 119 -26 124 -76 9
-270 -233 -321 -399 -16 -54 -27 -71 -61 -97 -50 -39 -60 -34 -23 10 36 42 64
105 65 141 0 67 -38 84 -110 47 -22 -11 -40 -18 -40 -15 0 3 19 30 41 60 32
43 40 60 35 80 -5 21 -12 25 -42 25 -51 0 -67 -11 -136 -103 -137 -181 -246
-295 -269 -281 -34 21 16 159 105 288 85 122 103 164 86 196 -6 11 -19 20 -29
20 -24 0 -50 -30 -119 -140 l-59 -94 -39 2 c-29 2 -56 -5 -97 -27 -92 -48
-128 -81 -154 -139 -17 -40 -34 -59 -70 -82 -57 -36 -116 -41 -133 -11 -13 26
-13 41 3 41 22 0 131 56 165 85 69 58 79 124 21 144 -96 33 -264 -82 -298
-206 -10 -34 -35 -59 -100 -100 -54 -34 -71 -30 -71 15 0 67 73 200 193 350
37 46 67 94 67 105 0 29 -36 87 -53 87 -25 0 -102 -59 -194 -149 -51 -50 -95
-91 -98 -91 -2 0 12 31 31 69 48 96 53 130 21 167 l-26 29 -47 -25 c-25 -13
-82 -59 -126 -102 -54 -53 -78 -71 -74 -56 24 76 28 101 21 134 -6 34 -44 85
-62 83 -4 0 -39 -12 -77 -25z m2092 -80 c6 -46 -27 -150 -67 -212 -21 -31 -70
-88 -109 -127 -75 -72 -83 -91 -60 -140 14 -32 42 -32 84 0 40 31 44 31 44 1
0 -28 -86 -111 -123 -118 -75 -14 -127 77 -106 186 24 130 158 335 273 418 47
33 60 32 64 -8z m-451 -130 c3 -9 2 -22 -3 -29 -51 -71 -114 -169 -114 -177 0
-5 14 2 31 17 45 37 107 67 132 63 18 -2 23 -11 25 -41 4 -45 -29 -106 -91
-174 -38 -41 -39 -43 -15 -43 13 0 45 14 71 30 56 35 57 36 57 11 0 -22 -67
-84 -124 -113 -29 -15 -51 -19 -90 -15 -135 14 -123 17 -142 -33 -26 -70 -71
-155 -89 -170 -26 -22 -46 12 -39 64 7 45 47 141 69 166 16 17 115 197 115
208 0 3 -20 -14 -45 -38 -43 -42 -45 -43 -45 -19 0 15 11 36 26 50 14 13 60
69 101 124 75 100 113 135 146 135 10 0 20 -7 24 -16z m1029 -131 c4 -38 7
-81 5 -98 -4 -43 -45 -109 -83 -134 -32 -20 -32 -21 -8 -21 29 0 77 27 143 82
45 38 47 39 47 16 0 -40 -143 -160 -212 -178 -35 -10 -46 -8 -86 12 -31 15
-54 35 -67 60 l-20 37 23 30 c12 17 22 36 22 42 0 7 30 44 68 83 37 39 75 86
84 104 13 25 24 32 46 32 29 0 30 -1 38 -67z m-272 31 c12 -30 6 -46 -38 -102
-51 -68 -76 -113 -76 -142 0 -28 31 -26 68 5 35 29 44 31 35 9 -3 -9 -6 -25
-7 -37 -1 -30 -99 -107 -135 -107 -42 0 -65 31 -58 80 l5 41 -53 -50 c-30 -28
-60 -51 -69 -51 -22 0 -64 56 -72 95 -11 61 37 161 107 219 24 21 41 26 68 24
56 -5 50 -27 -28 -112 -63 -67 -89 -116 -62 -116 16 0 93 69 187 166 89 93
116 109 128 78z m-1572 -67 c-26 -28 -102 -72 -102 -60 0 11 48 56 75 71 36
20 51 14 27 -11z m318 -36 c0 -11 -113 -117 -140 -131 -16 -9 -20 -7 -20 5 0
36 31 73 87 103 62 34 73 37 73 23z"/>
<path d="M2176 701 c-48 -66 -102 -168 -93 -177 3 -3 24 18 48 48 43 54 106
175 96 184 -3 3 -26 -22 -51 -55z"/>
<path d="M1744 438 c-25 -23 -54 -54 -65 -70 l-20 -28 35 0 c32 0 41 6 81 61
25 34 45 65 45 70 0 21 -33 6 -76 -33z m27 -15 c-43 -58 -50 -65 -62 -61 -8 3
2 20 25 46 43 47 69 57 37 15z"/>
<path d="M2718 458 l-57 -49 33 -30 c19 -16 40 -27 48 -24 35 14 58 92 40 137
-6 13 -17 8 -64 -34z m52 -17 c0 -16 -8 -39 -18 -51 l-17 -22 -19 21 c-19 21
-19 22 9 51 36 37 45 38 45 1z"/>
</g>
</svg>