<svg width="460" height="460" viewBox="0 0 460 460" fill="none" xmlns="http://www.w3.org/2000/svg">
<path d="M343.013 215.872C336.897 223.322 330.016 234.835 331.163 235.851C331.545 236.19 334.221 233.819 337.279 230.433C342.758 224.338 350.785 210.679 349.511 209.663C349.128 209.325 346.198 212.147 343.013 215.872Z" fill="#105685"/>
<path d="M287.971 245.559C284.785 248.155 281.09 251.654 279.689 253.46L277.141 256.621H281.6C285.677 256.621 286.824 255.944 291.92 249.735C295.106 245.898 297.654 242.398 297.654 241.834C297.654 239.463 293.449 241.157 287.971 245.559ZM291.411 247.252C285.932 253.799 285.04 254.589 283.511 254.138C282.492 253.799 283.766 251.88 286.696 248.945C292.175 243.64 295.488 242.511 291.411 247.252Z" fill="#105685"/>
<path d="M412.07 243.301L404.807 248.832L409.012 252.219C411.433 254.025 414.108 255.267 415.128 254.928C419.587 253.348 422.518 244.543 420.224 239.463C419.46 237.996 418.058 238.56 412.07 243.301ZM418.695 245.22C418.695 247.026 417.676 249.623 416.402 250.977L414.236 253.46L411.815 251.09C409.394 248.72 409.394 248.607 412.962 245.333C417.549 241.157 418.695 241.044 418.695 245.22Z" fill="#105685"/>
<path d="M92.0109 191.828C85.5129 193.973 82.9647 194.425 82.3276 193.409C79.7794 189.797 69.3316 199.73 67.0382 207.97C63.9803 219.145 67.0382 219.597 84.8759 210.792C91.8835 207.293 97.9993 204.697 98.509 205.035C99.9105 206.39 72 254.476 72 254.476L4.5 254V265L80 264.861C80 264.861 102.714 233.255 107.046 228.288C115.073 219.371 125.648 210.228 125.648 211.808C125.648 213.84 119.532 223.096 108.829 237.657C96.3429 254.589 94.6866 258.879 97.9993 265.99C99.146 268.248 100.548 270.167 101.057 270.167C102.714 270.167 110.868 262.378 124.629 247.591C131.381 240.479 138.389 233.368 140.428 231.788L143.995 228.966L141.065 232.916C133.93 242.737 129.088 253.348 129.088 259.217C129.088 268.361 132.91 273.553 139.79 273.553C143.868 273.553 154.698 268.135 160.941 263.055C166.42 258.653 166.929 258.427 168.203 260.459C171.771 265.764 173.682 267.006 179.416 267.57C185.914 268.248 195.342 264.974 202.987 259.443L207.064 256.395L208.975 260.346C209.994 262.604 211.906 264.861 213.307 265.539C216.11 266.893 219.041 265.313 228.597 257.298L233.948 252.783V259.104C233.948 265.764 235.987 269.038 239.936 269.038C243.631 269.038 252.55 263.62 257.392 258.427C263.125 252.219 267.075 251.203 263.762 256.847C262.616 258.766 260.067 262.378 258.029 264.861C250.384 274.23 246.689 289.243 251.276 293.194C252.295 294.21 253.824 295 254.461 295C257.264 295 262.106 288.679 266.693 279.084L271.534 268.925L275.994 269.602C291.028 271.634 292.94 271.521 299.565 268.022C303.133 266.103 307.592 263.394 309.631 262.039C312.688 259.895 313.453 259.782 313.963 261.136C314.345 262.039 316.511 264.523 318.804 266.442C325.175 272.198 330.653 271.408 340.209 263.507C343.267 261.023 345.306 260.007 345.688 260.798C348.619 268.022 356.263 269.828 363.398 265.087L367.476 262.265L368.75 265.539C369.514 267.457 371.553 269.264 373.974 270.167C378.943 271.973 383.912 270.279 391.047 264.635L395.888 260.798L399.966 264.184C405.444 268.812 408.757 270.167 414.236 270.167C420.734 270.167 430.035 265.539 439.718 257.637C446.216 252.219 448 250.074 448 247.478C448 242.398 444.815 242.173 439.336 246.688C430.417 254.025 429.78 254.138 432.838 248.042C435.004 243.753 435.386 241.382 434.749 235.851C433.22 221.516 432.71 220.5 428.251 220.5C423.282 220.5 421.243 221.741 418.695 226.031C414.491 233.594 388.116 255.944 385.95 253.912C384.676 252.896 388.371 246.801 394.359 239.689C398.182 235.174 399.583 232.465 399.583 229.53C399.583 225.241 397.8 222.757 394.742 222.757C393.722 222.757 385.568 229.079 376.649 236.867C367.73 244.656 360.086 250.977 359.576 250.977C357.92 250.977 361.232 246.913 367.093 241.947C370.406 239.125 373.974 235.4 374.993 233.594C376.904 230.433 376.777 230.094 374.101 228.176C366.584 222.757 355.117 229.304 346.962 243.753C341.993 252.332 332.182 258.201 330.271 253.686C328.488 249.623 330.016 247.365 339.445 238.899C351.167 228.401 356.773 220.387 359.576 209.889C362.252 200.746 361.105 196.456 356.263 195.892C346.58 194.876 321.862 222.193 315.364 240.931C313.325 247.026 311.924 248.945 307.592 251.88C301.221 256.282 299.947 255.718 304.661 250.751C309.248 246.01 312.816 238.899 312.943 234.835C312.943 227.272 308.102 225.354 298.928 229.53C296.125 230.772 293.831 231.562 293.831 231.223C293.831 230.885 296.252 227.837 299.055 224.451C303.133 219.597 304.152 217.678 303.515 215.42C302.878 213.05 301.986 212.598 298.163 212.598C291.665 212.598 289.627 213.84 280.835 224.225C263.38 244.656 249.492 257.524 246.562 255.944C242.23 253.573 248.6 237.996 259.94 223.435C270.77 209.663 273.063 204.922 270.897 201.31C270.133 200.069 268.476 199.053 267.202 199.053C264.144 199.053 260.832 202.439 252.04 214.856L244.523 225.466L239.554 225.241C235.859 225.015 232.419 225.805 227.195 228.288C215.473 233.707 210.886 237.432 207.574 243.979C205.408 248.494 203.242 250.638 198.655 253.235C191.392 257.298 183.875 257.863 181.709 254.476C180.053 251.542 180.053 249.848 182.091 249.848C184.894 249.848 198.782 243.527 203.114 240.254C211.906 233.707 213.18 226.257 205.79 223.999C193.558 220.274 172.153 233.255 167.821 247.252C166.547 251.09 163.362 253.912 155.08 258.54C148.2 262.378 146.034 261.926 146.034 256.847C146.034 249.284 155.335 234.271 170.624 217.339C175.338 212.147 179.161 206.728 179.161 205.487C179.161 202.213 174.574 195.666 172.408 195.666C169.223 195.666 159.412 202.326 147.69 212.485C141.192 218.129 135.586 222.757 135.204 222.757C134.949 222.757 136.733 219.258 139.153 214.969C145.269 204.132 145.906 200.294 141.829 196.118L138.516 192.844L132.528 195.666C129.343 197.134 122.08 202.326 116.474 207.18C109.594 213.163 106.536 215.194 107.046 213.501C110.103 204.922 110.613 202.1 109.721 198.375C108.957 194.538 104.115 188.781 101.822 189.006C101.312 189.006 96.8526 190.361 92.0109 191.828ZM358.557 200.859C359.321 206.051 355.117 217.791 350.02 224.789C347.344 228.288 341.101 234.723 336.132 239.125C326.576 247.252 325.557 249.397 328.487 254.928C330.271 258.54 333.839 258.54 339.19 254.928C344.287 251.429 344.796 251.429 344.796 254.815C344.796 257.976 333.839 267.345 329.125 268.135C319.569 269.715 312.943 259.443 315.619 247.139C318.677 232.465 335.75 209.325 350.402 199.956C356.391 196.231 358.047 196.344 358.557 200.859ZM301.094 215.533C301.476 216.549 301.349 218.016 300.712 218.807C294.214 226.821 286.187 237.883 286.187 238.786C286.187 239.351 287.97 238.56 290.137 236.867C295.87 232.691 303.77 229.304 306.955 229.756C309.248 229.982 309.885 230.997 310.14 234.384C310.65 239.463 306.445 246.349 298.546 254.025C293.704 258.653 293.577 258.879 296.634 258.879C298.291 258.879 302.368 257.298 305.681 255.492C312.816 251.542 312.943 251.429 312.943 254.251C312.943 256.734 304.407 263.732 297.144 267.006C293.449 268.699 290.646 269.151 285.677 268.699C268.476 267.119 270.005 266.78 267.585 272.424C264.272 280.326 258.538 289.92 256.245 291.614C252.932 294.097 250.384 290.259 251.276 284.389C252.168 279.31 257.264 268.473 260.067 265.651C262.106 263.732 274.72 243.414 274.72 242.173C274.72 241.834 272.171 243.753 268.986 246.462C263.507 251.203 263.253 251.316 263.253 248.607C263.253 246.913 264.654 244.543 266.565 242.963C268.349 241.495 274.21 235.174 279.434 228.966C288.99 217.678 293.831 213.727 298.036 213.727C299.31 213.727 300.584 214.517 301.094 215.533ZM432.201 230.32C432.71 234.61 433.093 239.463 432.838 241.382C432.328 246.236 427.104 253.686 422.263 256.508C418.186 258.766 418.186 258.879 421.243 258.879C424.938 258.879 431.054 255.831 439.463 249.623C445.197 245.333 445.452 245.22 445.452 247.817C445.452 252.332 427.232 265.877 418.44 267.909C413.981 269.038 412.579 268.812 407.483 266.554C403.533 264.861 400.603 262.604 398.946 259.782L396.398 255.605L399.329 252.219C400.857 250.3 402.132 248.155 402.132 247.478C402.132 246.688 405.954 242.511 410.796 238.109C415.51 233.707 420.352 228.401 421.498 226.369C423.155 223.547 424.556 222.757 427.359 222.757C431.054 222.757 431.182 222.87 432.201 230.32ZM397.545 226.821C399.074 230.207 398.309 232.013 392.703 238.335C386.205 246.01 383.02 251.09 383.02 254.363C383.02 257.524 386.97 257.298 391.684 253.799C396.143 250.526 397.29 250.3 396.143 252.783C395.761 253.799 395.379 255.605 395.251 256.96C395.124 260.346 382.638 269.038 378.051 269.038C372.699 269.038 369.769 265.539 370.661 260.007L371.298 255.379L364.545 261.023C360.723 264.184 356.9 266.78 355.754 266.78C352.951 266.78 347.599 260.459 346.58 256.057C345.178 249.171 351.294 237.883 360.213 231.336C363.271 228.966 365.437 228.401 368.877 228.627C376.012 229.191 375.248 231.675 365.31 241.27C357.283 248.832 353.97 254.363 357.41 254.363C359.449 254.363 369.259 246.575 381.236 235.626C392.576 225.128 396.016 223.322 397.545 226.821ZM197.253 234.384C193.941 237.544 184.257 242.511 184.257 241.157C184.257 239.915 190.373 234.835 193.813 233.142C198.4 230.885 200.311 231.562 197.253 234.384ZM237.77 238.448C237.77 239.689 223.373 251.654 219.933 253.235C217.894 254.251 217.384 254.025 217.384 252.67C217.384 248.607 221.334 244.43 228.469 241.044C236.369 237.206 237.77 236.867 237.77 238.448Z" fill="#105685"/>
<path d="M109.729 69C85.2917 77.625 64.6875 93.4375 53.1875 111.646C40.25 133.208 31.625 169.146 35.4583 189.271C38.3333 203.646 40.7292 206.521 49.3542 205.083C58.4583 203.646 60.375 199.813 62.7708 171.542C67.0833 119.792 96.7917 91.0417 146.146 91.0417C172.979 91.0417 183.042 95.8333 209.875 121.229L230 140.875L250.604 121.229C276.479 96.3125 287.021 91.0417 311.458 91.0417C339.25 91.0417 359.854 101.104 379.5 124.104C407.771 157.167 429.333 145.188 404.417 109.729C368.958 58.4583 297.562 47.9167 248.208 87.2083L230 101.104L212.271 87.2083C180.646 62.7708 145.187 56.0625 109.729 69Z" fill="#105685"/>
<path d="M361.5 287.5C359.104 290.854 344.833 308 326.5 328C304.5 352 294.917 362.542 259.458 381.708C240.292 391.771 230.229 394.646 217.771 392.729C198.604 389.375 143.979 354.396 120.5 329.958C102.292 311.271 89.3542 307.917 84.5625 320.854C77.8542 338.104 176.083 413.812 215.375 421C259.937 429.625 326.5 366 357 337.5C378.403 317.5 391.271 300.708 386 294C378.333 284.896 368.208 279.833 361.5 287.5Z" fill="#105685"/>
</svg>
