<svg width="400" height="125" viewBox="0 0 400 125" fill="none" xmlns="http://www.w3.org/2000/svg">
<g clip-path="url(#clip0_1_2)">
<g clip-path="url(#clip1_1_2)">
<path d="M27.2198 3.34094C20.4198 5.87427 17.7531 6.4076 17.0864 5.2076C14.4198 0.940938 3.48645 12.6743 1.08645 22.4076C-2.11355 35.6076 1.08645 36.1409 19.7531 25.7409C27.0864 21.6076 33.4864 18.5409 34.0198 18.9409C35.4864 20.5409 24.2864 41.7409 13.7531 57.2076C8.15311 65.6076 2.95311 74.0076 2.28645 75.6076C0.81978 79.3409 2.81978 88.1409 5.75311 90.5409C9.35311 93.4743 12.6864 90.4076 23.0864 74.8076C28.8198 66.2743 37.2198 54.4076 41.7531 48.5409C50.1531 38.0076 62.4198 25.0743 62.4198 26.9409C62.4198 29.3409 56.0198 40.2743 44.8198 57.4743C31.7531 77.4743 30.0198 82.5409 33.4864 90.9409C34.6864 93.6076 36.1531 95.8743 36.6864 95.8743C38.4198 95.8743 46.9531 86.6743 61.3531 69.2076C68.4198 60.8076 75.7531 52.4076 77.8865 50.5409L81.6198 47.2076L78.5531 51.8743C71.0865 63.4743 66.0198 76.0076 66.0198 82.9409C66.0198 93.7409 70.0198 99.8743 77.2198 99.8743C81.4865 99.8743 92.8198 93.4743 99.3531 87.4743C105.086 82.2743 105.62 82.0076 106.953 84.4076C110.686 90.6743 112.686 92.1409 118.686 92.8076C125.486 93.6076 135.353 89.7409 143.353 83.2076L147.62 79.6076L149.62 84.2743C150.686 86.9409 152.686 89.6076 154.153 90.4076C157.086 92.0076 160.153 90.1409 170.153 80.6743L175.753 75.3409V82.8076C175.753 90.6743 177.886 94.5409 182.02 94.5409C185.886 94.5409 195.22 88.1409 200.286 82.0076C206.286 74.6743 210.42 73.4743 206.953 80.1409C205.753 82.4076 203.086 86.6743 200.953 89.6076C192.953 100.674 189.086 118.408 193.886 123.074C194.953 124.274 196.553 125.208 197.22 125.208C200.153 125.208 205.22 117.741 210.02 106.408L215.086 94.4076L219.753 95.2076C235.486 97.6076 237.486 97.4743 244.42 93.3409C248.153 91.0743 252.82 87.8743 254.953 86.2743C258.153 83.7409 258.953 83.6076 259.486 85.2076C259.886 86.2743 262.153 89.2076 264.553 91.4743C271.22 98.2743 276.953 97.3409 286.953 88.0076C290.153 85.0743 292.286 83.8743 292.686 84.8076C295.753 93.3409 303.753 95.4743 311.22 89.8743L315.486 86.5409L316.82 90.4076C317.62 92.6743 319.753 94.8076 322.286 95.8743C327.486 98.0076 332.686 96.0076 340.153 89.3409L345.22 84.8076L349.486 88.8076C355.22 94.2743 358.686 95.8743 364.42 95.8743C371.22 95.8743 380.953 90.4076 391.086 81.0743C397.886 74.6743 399.753 72.1409 399.753 69.0743C399.753 63.0743 396.42 62.8076 390.686 68.1409C381.353 76.8076 380.686 76.9409 383.886 69.7409C386.153 64.6743 386.553 61.8743 385.886 55.3409C384.286 38.4076 383.753 37.2076 379.086 37.2076C373.886 37.2076 371.753 38.6743 369.086 43.7409C364.686 52.6743 337.086 79.0743 334.82 76.6743C333.486 75.4743 337.353 68.2743 343.62 59.8743C347.62 54.5409 349.086 51.3409 349.086 47.8743C349.086 42.8076 347.22 39.8743 344.02 39.8743C342.953 39.8743 334.42 47.3409 325.086 56.5409C315.753 65.7409 307.753 73.2076 307.22 73.2076C305.486 73.2076 308.953 68.4076 315.086 62.5409C318.553 59.2076 322.286 54.8076 323.353 52.6743C325.353 48.9409 325.22 48.5409 322.42 46.2743C314.553 39.8743 302.553 47.6076 294.02 64.6743C288.82 74.8076 278.553 81.7409 276.553 76.4076C274.686 71.6076 276.286 68.9409 286.153 58.9409C298.42 46.5409 304.286 37.0743 307.22 24.6743C310.02 13.8743 308.82 8.80761 303.753 8.14094C293.62 6.94094 267.753 39.2076 260.953 61.3409C258.82 68.5409 257.353 70.8076 252.82 74.2743C246.153 79.4743 244.82 78.8076 249.753 72.9409C254.553 67.3409 258.286 58.9409 258.42 54.1409C258.42 45.2076 253.353 42.9409 243.753 47.8743C240.82 49.3409 238.42 50.2743 238.42 49.8743C238.42 49.4743 240.953 45.8743 243.886 41.8743C248.153 36.1409 249.22 33.8743 248.553 31.2076C247.886 28.4076 246.953 27.8743 242.953 27.8743C236.153 27.8743 234.02 29.3409 224.82 41.6076C206.553 65.7409 192.02 80.9409 188.953 79.0743C184.42 76.2743 191.086 57.8743 202.953 40.6743C214.286 24.4076 216.686 18.8076 214.42 14.5409C213.62 13.0743 211.886 11.8743 210.553 11.8743C207.353 11.8743 203.886 15.8743 194.686 30.5409L186.82 43.0743L181.62 42.8076C177.753 42.5409 174.153 43.4743 168.686 46.4076C156.42 52.8076 151.62 57.2076 148.153 64.9409C145.886 70.2743 143.62 72.8076 138.82 75.8743C131.22 80.6743 123.353 81.3409 121.086 77.3409C119.353 73.8743 119.353 71.8743 121.486 71.8743C124.42 71.8743 138.953 64.4076 143.486 60.5409C152.686 52.8076 154.02 44.0076 146.286 41.3409C133.486 36.9409 111.086 52.2743 106.553 68.8076C105.22 73.3409 101.886 76.6743 93.2198 82.1409C86.0198 86.6743 83.7531 86.1409 83.7531 80.1409C83.7531 71.2076 93.4865 53.4743 109.486 33.4743C114.42 27.3409 118.42 20.9409 118.42 19.4743C118.42 15.6076 113.62 7.87427 111.353 7.87427C108.02 7.87427 97.7531 15.7409 85.4865 27.7409C78.6865 34.4076 72.8198 39.8743 72.4198 39.8743C72.1531 39.8743 74.0198 35.7409 76.5531 30.6743C82.9531 17.8743 83.6198 13.3409 79.3531 8.4076L75.8865 4.54094L69.6198 7.87427C66.2865 9.60761 58.6864 15.7409 52.8198 21.4743C45.6198 28.5409 42.4198 30.9409 42.9531 28.9409C46.1531 18.8076 46.6864 15.4743 45.7531 11.0743C44.9531 6.54094 39.8864 -0.259062 37.4864 0.00760455C36.9531 0.00760455 32.2864 1.6076 27.2198 3.34094ZM306.153 14.0076C306.953 20.1409 302.553 34.0076 297.22 42.2743C294.42 46.4076 287.886 54.0076 282.686 59.2076C272.686 68.8076 271.62 71.3409 274.686 77.8743C276.553 82.1409 280.286 82.1409 285.886 77.8743C291.22 73.7409 291.753 73.7409 291.753 77.7409C291.753 81.4743 280.286 92.5409 275.353 93.4743C265.353 95.3409 258.42 83.2076 261.22 68.6743C264.42 51.3409 282.286 24.0076 297.62 12.9409C303.886 8.54094 305.62 8.67427 306.153 14.0076ZM246.02 31.3409C246.42 32.5409 246.286 34.2743 245.62 35.2076C238.82 44.6743 230.42 57.7409 230.42 58.8076C230.42 59.4743 232.286 58.5409 234.553 56.5409C240.553 51.6076 248.82 47.6076 252.153 48.1409C254.553 48.4076 255.22 49.6076 255.486 53.6076C256.02 59.6076 251.62 67.7409 243.353 76.8076C238.286 82.2743 238.153 82.5409 241.353 82.5409C243.086 82.5409 247.353 80.6743 250.82 78.5409C258.286 73.8743 258.42 73.7409 258.42 77.0743C258.42 80.0076 249.486 88.2743 241.886 92.1409C238.02 94.1409 235.086 94.6743 229.886 94.1409C211.886 92.2743 213.486 91.8743 210.953 98.5409C207.486 107.874 201.486 119.208 199.086 121.208C195.62 124.141 192.953 119.608 193.886 112.674C194.82 106.674 200.153 93.8743 203.086 90.5409C205.22 88.2743 218.42 64.2743 218.42 62.8076C218.42 62.4076 215.753 64.6743 212.42 67.8743C206.686 73.4743 206.42 73.6076 206.42 70.4076C206.42 68.4076 207.886 65.6076 209.886 63.7409C211.753 62.0076 217.886 54.5409 223.353 47.2076C233.353 33.8743 238.42 29.2076 242.82 29.2076C244.153 29.2076 245.486 30.1409 246.02 31.3409ZM383.22 48.8076C383.753 53.8743 384.153 59.6076 383.886 61.8743C383.353 67.6076 377.886 76.4076 372.82 79.7409C368.553 82.4076 368.553 82.5409 371.753 82.5409C375.62 82.5409 382.02 78.9409 390.82 71.6076C396.82 66.5409 397.086 66.4076 397.086 69.4743C397.086 74.8076 378.02 90.8076 368.82 93.2076C364.153 94.5409 362.686 94.2743 357.353 91.6076C353.22 89.6076 350.153 86.9409 348.42 83.6076L345.753 78.6743L348.82 74.6743C350.42 72.4076 351.753 69.8743 351.753 69.0743C351.753 68.1409 355.753 63.2076 360.82 58.0076C365.753 52.8076 370.82 46.5409 372.02 44.1409C373.753 40.8076 375.22 39.8743 378.153 39.8743C382.02 39.8743 382.153 40.0076 383.22 48.8076ZM346.953 44.6743C348.553 48.6743 347.753 50.8076 341.886 58.2743C335.086 67.3409 331.753 73.3409 331.753 77.2076C331.753 80.9409 335.886 80.6743 340.82 76.5409C345.486 72.6743 346.686 72.4076 345.486 75.3409C345.086 76.5409 344.686 78.6743 344.553 80.2743C344.42 84.2743 331.353 94.5409 326.553 94.5409C320.953 94.5409 317.886 90.4076 318.82 83.8743L319.486 78.4076L312.42 85.0743C308.42 88.8076 304.42 91.8743 303.22 91.8743C300.286 91.8743 294.686 84.4076 293.62 79.2076C292.153 71.0743 298.553 57.7409 307.886 50.0076C311.086 47.2076 313.353 46.5409 316.953 46.8076C324.42 47.4743 323.62 50.4076 313.22 61.7409C304.82 70.6743 301.353 77.2076 304.953 77.2076C307.086 77.2076 317.353 68.0076 329.886 55.0743C341.753 42.6743 345.353 40.5409 346.953 44.6743ZM137.353 53.6076C133.886 57.3409 123.753 63.2076 123.753 61.6076C123.753 60.1409 130.153 54.1409 133.753 52.1409C138.553 49.4743 140.553 50.2743 137.353 53.6076ZM179.753 58.4076C179.753 59.8743 164.686 74.0076 161.086 75.8743C158.953 77.0743 158.42 76.8076 158.42 75.2076C158.42 70.4076 162.553 65.4743 170.02 61.4743C178.286 56.9409 179.753 56.5409 179.753 58.4076Z" fill="#1B5175"/>
<path d="M289.886 31.7409C283.486 40.5409 276.286 54.1409 277.486 55.3409C277.886 55.7409 280.686 52.9409 283.886 48.9409C289.62 41.7409 298.02 25.6076 296.686 24.4076C296.286 24.0076 293.22 27.3409 289.886 31.7409Z" fill="#1B5175"/>
<path d="M232.286 66.8076C228.953 69.8743 225.086 74.0076 223.62 76.1409L220.953 79.8743H225.62C229.886 79.8743 231.086 79.0743 236.42 71.7409C239.753 67.2076 242.42 63.0743 242.42 62.4076C242.42 59.6076 238.02 61.6076 232.286 66.8076ZM235.886 68.8076C230.153 76.5409 229.22 77.4743 227.62 76.9409C226.553 76.5409 227.886 74.2743 230.953 70.8076C236.686 64.5409 240.153 63.2076 235.886 68.8076Z" fill="#1B5175"/>
<path d="M362.153 64.1409L354.553 70.6743L358.953 74.6743C361.486 76.8076 364.286 78.2743 365.353 77.8743C370.02 76.0076 373.086 65.6076 370.686 59.6076C369.886 57.8743 368.42 58.5409 362.153 64.1409ZM369.086 66.4076C369.086 68.5409 368.02 71.6076 366.686 73.2076L364.42 76.1409L361.886 73.3409C359.353 70.5409 359.353 70.4076 363.086 66.5409C367.886 61.6076 369.086 61.4743 369.086 66.4076Z" fill="#1B5175"/>
</g>
</g>
<defs>
<clipPath id="clip0_1_2">
<rect width="400" height="125" fill="white"/>
</clipPath>
<clipPath id="clip1_1_2">
<rect width="400" height="125.333" fill="white"/>
</clipPath>
</defs>
</svg>
