<svg xmlns="http://www.w3.org/2000/svg" width="16" height="16" fill="black" class="bi bi-pencil-square" viewBox="0 0 16 16">
  <g transform="scale(0.6667)">
    <rect fill="#FFFFFF" height="17" width="11.5" x="12" y="3.5"/>
    <path d="M23.5,21h-10c-0.276,0-0.5-0.224-0.5-0.5s0.224-0.5,0.5-0.5H23V4h-9.5C13.224,4,13,3.776,13,3.5S13.224,3,13.5,3h10
      C23.776,3,24,3.224,24,3.5v17C24,20.776,23.776,21,23.5,21z" fill="#177848"/>
    <polygon fill="#177848" points="14,0 0,2.609 0,21.391 14,24"/>
    <polygon fill="#FFFFFF" opacity="0.2" points="0,2.609 0,2.859 14,0.25 14,0"/>
    <rect fill="#177848" height="2" width="4" x="13" y="5"/>
    <rect fill="#177848" height="2" width="4" x="18" y="5"/>
    <rect fill="#177848" height="2" width="4" x="13" y="8"/>
    <rect fill="#177848" height="2" width="4" x="18" y="8"/>
    <rect fill="#177848" height="2" width="4" x="13" y="11"/>
    <rect fill="#177848" height="2" width="4" x="18" y="11"/>
    <rect fill="#177848" height="2" width="4" x="13" y="14"/>
    <rect fill="#177848" height="2" width="4" x="18" y="14"/>
    <rect fill="#177848" height="2" width="4" x="13" y="17"/>
    <rect fill="#177848" height="2" width="4" x="18" y="17"/>
    <polygon opacity="0.1" points="0,21.391 14,24 14,23.75 0,21.141"/>
    <path d="M23.5,21c0.276,0,0.5-0.224,0.5-0.5V13L14,3v18H23.5z" fill="black" opacity="0.1"/>
    <polygon fill="#FFFFFF" points="7.358,12.5 9.655,8.364 9.626,8.348 7.88,8.473 6.5,10.956 5.226,8.662 3.576,8.78 
      5.642,12.5 3.576,16.22 5.226,16.338 6.5,14.044 7.88,16.527 9.626,16.652 9.655,16.636"/>
    <path d="M14,0L0,2.609v18.783L14,24V0z" fill="black" opacity="0.05"/>
    <path d="M23.5,3H14V0L0,2.609v18.783L14,24v-3h9.5c0.276,0,0.5-0.224,0.5-0.5v-17C24,3.224,23.776,3,23.5,3z"
      fill="white" opacity="0.2"/>
  </g>
</svg>
